<svg  viewBox="0 0 100 100" fill="none" xmlns="http://www.w3.org/2000/svg">
<rect width="100" height="100" rx="20" fill="white"/>
<path fill-rule="evenodd" clip-rule="evenodd" d="M78 54.5233C78 72.1798 50 84.4858 50 84.4858C50 84.4858 22 72.1798 22 54.5233V24.5607C22 24.5607 23.6907 24.8026 26.3381 24.8026C32.2022 24.8026 42.7512 23.6169 50 16C57.2488 23.6169 67.7978 24.8026 73.6597 24.8026C76.3071 24.8026 78 24.5607 78 24.5607V54.5233ZM26.3403 29.0829H26.2804V54.5233C26.2804 65.8234 42.0535 75.8759 50 79.7624C57.9401 75.863 73.7239 65.7871 73.7239 54.5233V29.0829H73.664C68.0225 29.0829 58.0364 28.0578 50.0021 21.7657C41.9679 28.0578 31.9797 29.0829 26.3403 29.0829ZM37.694 61.1557V56.8753H62.306V61.1557H37.694ZM37.694 46.8443V51.1247H62.306V46.8443H37.694ZM37.694 41.0893V36.809H62.306V41.0893H37.694Z" fill="black"/>
</svg>
